<svg width="24" height="24" viewBox="0 0 24 24" fill="none" xmlns="http://www.w3.org/2000/svg">
<g clip-path="url(#clip0_5309_55)">
<path d="M1.52034e-06 13.5V10.5C1.52013e-06 8.90201 -0.00162542 7.56282 0.101564 6.47754C0.207585 5.36272 0.43811 4.31084 1.03125 3.34277C1.60844 2.40089 2.40089 1.60844 3.34277 1.03125C4.31084 0.43811 5.36272 0.207585 6.47754 0.101564C7.56282 -0.00162542 8.90201 1.52013e-06 10.5 1.52034e-06V2C7.22689 2 5.59001 1.99974 4.3877 2.73633L4.14063 2.89844C3.57591 3.29212 3.09712 3.79894 2.73633 4.3877L2.60742 4.61817C2.00019 5.80069 2 7.43093 2 10.5L2.00098 14.6533C2.01105 17.1756 2.09184 18.5603 2.73633 19.6123C3.14861 20.2851 3.71492 20.8514 4.3877 21.2637C5.59001 22.0003 7.22689 22 10.5 22L14.6533 21.999C16.9959 21.9897 18.357 21.9188 19.3818 21.3926L19.6123 21.2637C20.2011 20.9029 20.7079 20.4241 21.1016 19.8594L21.2637 19.6123C21.9082 18.5603 21.989 17.1756 21.999 14.6533L22 10.5C22 7.43093 21.9998 5.80069 21.3926 4.61817L21.2637 4.3877C20.8514 3.71492 20.2851 3.14861 19.6123 2.73633C18.5603 2.09184 17.1756 2.01105 14.6533 2.00098L13.5 2V1.52034e-06C15.098 1.52013e-06 16.4372 -0.00162542 17.5225 0.101564C18.6373 0.207585 19.6892 0.43811 20.6572 1.03125C21.5991 1.60844 22.3916 2.40089 22.9688 3.34277C23.5619 4.31084 23.7924 5.36272 23.8984 6.47754C24.0016 7.56282 24 8.90201 24 10.5V13.5C24 15.098 24.0016 16.4372 23.8984 17.5225C23.7924 18.6373 23.5619 19.6892 22.9688 20.6572C22.3916 21.5991 21.5991 22.3916 20.6572 22.9688C19.6892 23.5619 18.6373 23.7924 17.5225 23.8984C16.4372 24.0016 15.098 24 13.5 24H10.5C8.90201 24 7.56282 24.0016 6.47754 23.8984C5.36272 23.7924 4.31084 23.5619 3.34277 22.9688C2.40089 22.3916 1.60844 21.5991 1.03125 20.6572C0.43811 19.6892 0.207585 18.6373 0.101564 17.5225C-0.00162542 16.4372 1.52013e-06 15.098 1.52034e-06 13.5ZM13.5 1.52034e-06V2H10.5V1.52034e-06H13.5Z" fill="#80848B"/>
<path d="M16 14C16.5523 14 17 14.4477 17 15C17 15.5523 16.5523 16 16 16H8C7.44772 16 7 15.5523 7 15C7 14.4477 7.44772 14 8 14H16Z" fill="#80848B"/>
<path d="M16 8C16.5523 8 17 8.44772 17 9C17 9.55228 16.5523 10 16 10H8C7.44772 10 7 9.55228 7 9C7 8.44772 7.44772 8 8 8H16Z" fill="#80848B"/>
</g>
<defs>
<clipPath id="clip0_5309_55">
<rect width="24" height="24" fill="white"/>
</clipPath>
</defs>
</svg>
