<svg width="24" height="24" viewBox="0 0 24 24" fill="none" xmlns="http://www.w3.org/2000/svg">
<path d="M1.00001 16.9883V8.59962C1.00001 7.42104 0.997966 6.4067 1.0713 5.57715C1.14698 4.72119 1.31438 3.87251 1.76466 3.06837C2.30534 2.10292 3.10293 1.30533 4.06837 0.764654C4.87252 0.31437 5.7212 0.146969 6.57716 0.0712948C7.40671 -0.00204154 8.42105 5.38074e-06 9.59962 5.78238e-06V2.00001C7.17105 2.00001 5.95652 2.00001 5.04591 2.50977L4.80958 2.65333C4.27179 3.00531 3.82516 3.48275 3.50978 4.0459L3.41993 4.21973C2.99965 5.11242 3.00001 6.32238 3.00001 8.59962V16.9883C3.00001 19.0498 3.00038 20.0805 3.46388 20.6367C3.78693 21.0244 4.24462 21.2754 4.74513 21.3398C5.46317 21.4321 6.3325 20.879 8.0713 19.7725L9.34279 18.9639C10.2284 18.4003 10.7264 18.0827 11.2041 17.9385L11.4092 17.8877C11.7992 17.8093 12.2008 17.8093 12.5908 17.8877C13.1387 17.9978 13.6451 18.3198 14.6572 18.9639L15.9287 19.7725C17.6675 20.879 18.5369 21.4321 19.2549 21.3398C19.7554 21.2754 20.2131 21.0244 20.5361 20.6367C20.8838 20.2195 20.9715 19.5355 20.9932 18.3496L21 16.9883V8.59962C21 6.32238 21.0004 5.11242 20.5801 4.21973L20.4902 4.0459C20.1298 3.40227 19.5977 2.87022 18.9541 2.50977C18.2712 2.12748 17.4174 2.03173 16.0088 2.00782L14.4004 2.00001V5.78238e-06C15.579 5.38025e-06 16.5933 -0.00204153 17.4229 0.0712948C18.2788 0.146969 19.1275 0.31437 19.9317 0.764654C20.8971 1.30533 21.6947 2.10292 22.2354 3.06837C22.6856 3.87251 22.8531 4.72119 22.9287 5.57715C23.0021 6.4067 23 7.42104 23 8.59962V16.9883C23 17.9759 23.0026 18.8673 22.9326 19.5742C22.8642 20.265 22.7002 21.1644 22.0733 21.917C21.4272 22.6923 20.5117 23.1954 19.5108 23.3242C18.5391 23.4493 17.6919 23.1042 17.0723 22.791C16.4383 22.4705 15.6877 21.9902 14.8545 21.46L13.584 20.6514C12.4354 19.9204 12.2925 19.8678 12.1973 19.8486C12.0672 19.8225 11.9328 19.8225 11.8027 19.8486C11.7075 19.8678 11.5646 19.9204 10.416 20.6514L9.14552 21.46C8.31235 21.9902 7.56175 22.4705 6.92775 22.791C6.30816 23.1042 5.46095 23.4493 4.48927 23.3242C3.48831 23.1954 2.57283 22.6923 1.92677 21.917C1.29981 21.1644 1.13582 20.265 1.0674 19.5742C0.99738 18.8673 1.00001 17.9759 1.00001 16.9883ZM14.4004 5.78238e-06V2.00001H9.59962V5.78238e-06H14.4004Z" fill="#80848B"/>
</svg>
