<svg width="24" height="24" viewBox="0 0 24 24" fill="none" xmlns="http://www.w3.org/2000/svg">
<g clip-path="url(#clip0_5309_59)">
<path d="M1.00001 17.0498V12.9502C1.00001 12.0751 0.998263 11.288 1.05567 10.6387C1.11542 9.96297 1.25111 9.24696 1.6377 8.55665C2.08821 7.75232 2.75232 7.08821 3.55665 6.6377C4.24696 6.25111 4.96297 6.11542 5.63868 6.05567C6.28803 5.99826 7.07511 6.00001 7.9502 6.00001V8.00001L6.74415 8.00587C5.68706 8.02378 5.04652 8.0959 4.53419 8.38282L4.35743 8.49024C3.95409 8.75421 3.61936 9.11184 3.38282 9.53419L3.31544 9.66504C3.00021 10.3346 3.00001 11.2421 3.00001 12.9502V17.0498C3.00001 18.8717 3.00031 19.7828 3.38282 20.4658C3.65314 20.9485 4.05154 21.3469 4.53419 21.6172C5.04652 21.9041 5.68706 21.9762 6.74415 21.9941L7.9502 22H16.0498C17.8717 22 18.7828 21.9997 19.4658 21.6172C19.9485 21.3469 20.3469 20.9485 20.6172 20.4658C20.9997 19.7828 21 18.8717 21 17.0498V12.9502C21 11.2421 20.9998 10.3346 20.6846 9.66504L20.6172 9.53419C20.3807 9.11184 20.0459 8.75421 19.6426 8.49024L19.4658 8.38282C18.7828 8.00031 17.8717 8.00001 16.0498 8.00001V6.00001C16.9249 6.00001 17.712 5.99826 18.3613 6.05567C19.037 6.11542 19.7531 6.25111 20.4434 6.6377C21.2477 7.08821 21.9118 7.75232 22.3623 8.55665C22.7489 9.24696 22.8846 9.96297 22.9443 10.6387C23.0017 11.288 23 12.0751 23 12.9502V17.0498C23 17.9249 23.0017 18.712 22.9443 19.3613C22.8846 20.037 22.7489 20.7531 22.3623 21.4434C21.9118 22.2477 21.2477 22.9118 20.4434 23.3623C19.7531 23.7489 19.037 23.8846 18.3613 23.9443C17.712 24.0017 16.9249 24 16.0498 24H7.9502C7.07511 24 6.28803 24.0017 5.63868 23.9443C4.96297 23.8846 4.24696 23.7489 3.55665 23.3623C2.75232 22.9118 2.08821 22.2477 1.6377 21.4434C1.25111 20.7531 1.11542 20.037 1.05567 19.3613C0.998263 18.712 1.00001 17.9249 1.00001 17.0498ZM16.0498 6.00001V8.00001H7.9502V6.00001H16.0498Z" fill="#80848B"/>
<path fill-rule="evenodd" clip-rule="evenodd" d="M15 0C17.2091 0 19 1.79086 19 4C19 6.20914 17.2091 8 15 8C13.8047 8 12.733 7.47472 12 6.64355C11.267 7.47472 10.1953 8 9 8C6.79086 8 5 6.20914 5 4C5 1.79086 6.79086 0 9 0C10.195 0 11.267 0.524627 12 1.35547C12.733 0.524627 13.805 0 15 0ZM9 2C7.89543 2 7 2.89543 7 4C7 5.10457 7.89543 6 9 6C10.1046 6 11 5.10457 11 4C11 2.89543 10.1046 2 9 2ZM15 2C13.8954 2 13 2.89543 13 4C13 5.10457 13.8954 6 15 6C16.1046 6 17 5.10457 17 4C17 2.89543 16.1046 2 15 2Z" fill="#80848B"/>
</g>
<defs>
<clipPath id="clip0_5309_59">
<rect width="24" height="24" fill="white"/>
</clipPath>
</defs>
</svg>
