<svg width="24" height="24" viewBox="0 0 24 24" fill="none" xmlns="http://www.w3.org/2000/svg">
<g clip-path="url(#clip0_5297_195)">
<path d="M22 12C22 8.52133 22.0005 6.67309 21.3701 5.33008L21.2354 5.06836C20.6947 4.10291 19.8971 3.30533 18.9316 2.76465C17.5656 1.99975 15.7102 2 12 2C8.28975 2 6.43439 1.99975 5.06836 2.76465L4.71387 2.97949C3.90723 3.50746 3.23769 4.22368 2.76465 5.06836L2.62988 5.33008C1.99946 6.67309 2 8.52133 2 12C2 15.7102 1.99975 17.5656 2.76465 18.9316C3.30533 19.8971 4.10291 20.6947 5.06836 21.2354C6.43439 22.0003 8.28975 22 12 22C15.4787 22 17.3269 22.0005 18.6699 21.3701L18.9316 21.2354C19.7763 20.7623 20.4925 20.0928 21.0205 19.2861L21.2354 18.9316C22.0003 17.5656 22 15.7102 22 12ZM24 12C24 13.8197 24.0014 15.3133 23.8965 16.5186C23.7895 17.7471 23.5596 18.8734 22.9795 19.9092C22.2587 21.1962 21.1962 22.2587 19.9092 22.9795C18.8734 23.5596 17.7471 23.7895 16.5186 23.8965C15.3133 24.0014 13.8197 24 12 24C10.1803 24 8.68673 24.0014 7.48145 23.8965C6.25293 23.7895 5.12664 23.5596 4.09082 22.9795C2.80384 22.2587 1.74134 21.1962 1.02051 19.9092C0.440423 18.8734 0.210483 17.7471 0.103517 16.5186C-0.00142013 15.3133 9.88297e-07 13.8197 9.88297e-07 12C9.88297e-07 10.1803 -0.00142013 8.68673 0.103517 7.48145C0.210483 6.25293 0.440423 5.12664 1.02051 4.09082C1.74134 2.80384 2.80384 1.74134 4.09082 1.02051C5.12664 0.440423 6.25293 0.210483 7.48145 0.103517C8.68673 -0.00142013 10.1803 9.88297e-07 12 9.88297e-07C13.8197 9.88297e-07 15.3133 -0.00142013 16.5186 0.103517C17.7471 0.210483 18.8734 0.440423 19.9092 1.02051C21.1962 1.74134 22.2587 2.80384 22.9795 4.09082C23.5596 5.12664 23.7895 6.25293 23.8965 7.48145C24.0014 8.68673 24 10.1803 24 12Z" fill="#80848B"/>
<path d="M13.25 9.83498C14.5567 10.5894 15.21 10.9666 15.4004 11.4625C15.5332 11.8085 15.5332 12.1915 15.4004 12.5376C15.21 13.0335 14.5567 13.4107 13.25 14.1651V14.1651C11.9433 14.9195 11.29 15.2967 10.7653 15.2136C10.3992 15.1556 10.0676 14.9641 9.83428 14.6761C9.5 14.2633 9.5 13.5089 9.5 12V12C9.5 10.4912 9.5 9.73681 9.83428 9.32401C10.0676 9.03594 10.3992 8.84445 10.7653 8.78646C11.29 8.70336 11.9433 9.08057 13.25 9.83498V9.83498Z" fill="#80848B"/>
</g>
<defs>
<clipPath id="clip0_5297_195">
<rect width="24" height="24" fill="white"/>
</clipPath>
</defs>
</svg>
